<svg width="74" height="30" viewBox="0 0 74 30" fill="none" xmlns="http://www.w3.org/2000/svg">
<path fillRule="evenodd" clipRule="evenodd" d="M20.6137 20.9808C20.5271 21.0482 20.4838 21.1737 20.4838 21.3559H20.4851V28.8627C20.4851 29.0368 20.5244 29.1569 20.6029 29.2203C20.6828 29.2824 20.8005 29.3148 20.9575 29.3148C21.1146 29.3148 21.235 29.2837 21.3176 29.2203C21.4002 29.1569 21.4421 29.0381 21.4421 28.8627V28.3148C21.61 28.6252 21.8631 28.887 22.2028 29.1015C22.5426 29.3161 22.9568 29.4241 23.4441 29.4241C23.8596 29.4241 24.2319 29.3444 24.5594 29.1852C24.887 29.026 25.1658 28.8033 25.3932 28.5172C25.622 28.2312 25.7939 27.8925 25.909 27.4984C26.0254 27.1058 26.0836 26.6753 26.0836 26.2057C26.0836 25.7374 26.024 25.3097 25.909 24.9251C25.7926 24.5392 25.6206 24.2072 25.3932 23.9292C25.1645 23.6513 24.887 23.434 24.5594 23.2802C24.2319 23.125 23.8596 23.0481 23.4441 23.0481C23.1883 23.0481 22.9554 23.0804 22.7483 23.1439C22.5399 23.2086 22.3544 23.2869 22.1907 23.3827C22.0269 23.4785 21.8848 23.5878 21.7643 23.7106C21.6438 23.8348 21.5518 23.9549 21.4882 24.075V21.3559C21.4882 21.1737 21.4435 21.0482 21.3528 20.9808C21.2621 20.9133 21.1389 20.8795 20.9806 20.8795C20.8222 20.8795 20.7004 20.9133 20.6137 20.9808ZM24.8951 25.3232C24.9669 25.5998 25.0034 25.9088 25.0034 26.2502C25.0034 26.5835 24.9642 26.8899 24.8843 27.1732C24.8031 27.4539 24.6894 27.6968 24.5418 27.8979C24.3929 28.1003 24.2089 28.2568 23.9896 28.3675C23.7703 28.4781 23.5199 28.5334 23.2397 28.5334C22.9514 28.5334 22.6956 28.4754 22.4722 28.3607C22.2475 28.246 22.0594 28.0854 21.9078 27.879C21.7562 27.6725 21.6425 27.4283 21.5667 27.1476C21.4909 26.8669 21.453 26.5592 21.453 26.2259C21.453 25.5215 21.6127 24.9683 21.9321 24.5675C22.2516 24.1681 22.6996 23.967 23.2762 23.967C23.5646 23.967 23.815 24.0237 24.0315 24.1343C24.2481 24.245 24.4268 24.4015 24.5716 24.6039C24.7151 24.805 24.8234 25.0452 24.8951 25.3232Z" fill="#E40000"/>
<path d="M31.3896 23.6458C31.3896 23.4623 31.4356 23.3382 31.5277 23.2694C31.6184 23.2019 31.7443 23.1682 31.904 23.1682C32.0637 23.1682 32.1869 23.2019 32.2749 23.2694C32.3629 23.3368 32.4062 23.4623 32.4062 23.6458V28.8667C32.4062 29.0422 32.3656 29.1609 32.2857 29.2243C32.2058 29.2878 32.0867 29.3188 31.927 29.3188C31.7673 29.3188 31.6455 29.2864 31.5615 29.2243C31.4776 29.1609 31.4356 29.0408 31.4356 28.8667V28.2946C31.3233 28.5091 31.1717 28.6994 30.9808 28.8667C30.8211 29.0098 30.61 29.1407 30.3474 29.2594C30.0848 29.3782 29.7613 29.4389 29.3795 29.4389C29.0682 29.4389 28.7813 29.3957 28.5187 29.308C28.2547 29.2203 28.0314 29.0894 27.8486 28.914C27.6646 28.7385 27.5211 28.5186 27.4182 28.2528C27.314 27.9869 27.2625 27.6712 27.2625 27.3055V23.5865C27.2625 23.3085 27.425 23.1695 27.7525 23.1695C28.1031 23.1695 28.2791 23.3085 28.2791 23.5865V27.0558C28.2791 27.5254 28.3752 27.883 28.566 28.1286C28.7569 28.3756 29.1115 28.4984 29.63 28.4984C29.9413 28.4984 30.2079 28.4295 30.4313 28.2892C30.6546 28.1502 30.836 27.9694 30.9754 27.7467C31.1148 27.5241 31.2191 27.2744 31.2868 26.9964C31.3544 26.7185 31.3883 26.4445 31.3883 26.1733V23.6458H31.3896Z" fill="#E40000"/>
<path d="M33.841 28.8546C33.753 28.7831 33.6921 28.7129 33.6555 28.6454C33.619 28.578 33.6014 28.5132 33.6014 28.4484C33.6014 28.3135 33.6488 28.188 33.7449 28.0733C33.841 27.9586 33.956 27.9006 34.0914 27.9006C34.1712 27.9006 34.2443 27.9168 34.312 27.9478C34.3797 27.9788 34.4582 28.0274 34.5448 28.0908C34.6802 28.1866 34.8751 28.2932 35.1309 28.412C35.3868 28.5321 35.7049 28.5915 36.0879 28.5915C36.5102 28.5915 36.8351 28.5078 37.0625 28.3418C37.2899 28.1745 37.4036 27.9491 37.4036 27.6617C37.4036 27.5592 37.3914 27.4593 37.3671 27.3635C37.3427 27.2677 37.2899 27.1773 37.206 27.0896C37.1221 27.0019 37.0002 26.9249 36.8419 26.8575C36.6821 26.79 36.4669 26.736 36.1962 26.6969L35.4666 26.5768C34.9482 26.4972 34.5245 26.315 34.1929 26.0289C33.8626 25.7428 33.6961 25.3421 33.6961 24.8252C33.6961 24.2612 33.9046 23.824 34.3242 23.515C34.7425 23.2046 35.311 23.0494 36.0284 23.0494C36.3464 23.0494 36.6239 23.071 36.8595 23.1142C37.095 23.1574 37.2913 23.2113 37.451 23.2748C37.6107 23.3382 37.742 23.4043 37.8449 23.4718C37.9477 23.5392 38.029 23.5973 38.0845 23.6445C38.2361 23.7713 38.3119 23.8982 38.3119 24.0264C38.3119 24.1532 38.274 24.2666 38.1982 24.3664C38.1224 24.4663 38.0114 24.5149 37.8679 24.5149C37.7799 24.5149 37.6973 24.4973 37.6229 24.4609C37.5471 24.4245 37.4564 24.3759 37.3522 24.3125C37.1992 24.2248 37.0178 24.133 36.8067 24.0385C36.5942 23.9427 36.3167 23.8955 35.9729 23.8955C35.5411 23.8955 35.223 23.9751 35.0186 24.1343C34.8142 24.2936 34.7127 24.496 34.7127 24.7416C34.7127 24.8455 34.7249 24.944 34.7479 25.0398C34.7722 25.1356 34.8223 25.2247 34.8981 25.3083C34.9739 25.3906 35.0863 25.4649 35.2338 25.5283C35.3813 25.5917 35.5803 25.6403 35.828 25.6713L36.5725 25.7901C37.1884 25.8778 37.65 26.0667 37.9586 26.3568C38.2672 26.647 38.4201 27.0545 38.4201 27.5794C38.4201 28.1583 38.2171 28.6144 37.811 28.9437C37.4036 29.2729 36.8229 29.4389 36.0649 29.4389C35.7617 29.4389 35.4883 29.4187 35.246 29.3795C35.0023 29.339 34.7871 29.2905 34.6003 29.2297C34.4135 29.1704 34.2579 29.1069 34.1347 29.0395C34.0088 28.972 33.9114 28.9099 33.841 28.8546Z" fill="#E40000"/>
<path fillRule="evenodd" clipRule="evenodd" d="M39.7182 21.0401C39.5937 21.1562 39.5328 21.3168 39.5328 21.5232C39.5328 21.731 39.5937 21.8916 39.7182 22.0063C39.8414 22.121 39.9944 22.179 40.1785 22.179C40.3612 22.179 40.5141 22.121 40.6387 22.0063C40.7618 21.8916 40.8241 21.731 40.8241 21.5232C40.8241 21.3168 40.7618 21.1562 40.6387 21.0401C40.5155 20.9254 40.3612 20.8674 40.1785 20.8674C39.9944 20.8674 39.8414 20.9254 39.7182 21.0401ZM39.8076 23.2694C39.7196 23.3382 39.6763 23.4623 39.6763 23.6459V28.8438C39.6763 29.026 39.7196 29.1515 39.8076 29.2189C39.8956 29.2864 40.0187 29.3202 40.1785 29.3202C40.3368 29.3202 40.4627 29.2864 40.5547 29.2189C40.6468 29.1515 40.6928 29.026 40.6928 28.8438V23.6459C40.6928 23.4623 40.6468 23.3368 40.5547 23.2694C40.4627 23.2019 40.3382 23.1682 40.1785 23.1682C40.0187 23.1682 39.8956 23.2019 39.8076 23.2694Z" fill="#E40000"/>
<path d="M43.1915 28.8438C43.1915 29.026 43.1455 29.1515 43.0535 29.2189C42.9614 29.2864 42.8355 29.3202 42.6772 29.3202C42.5174 29.3202 42.3943 29.2864 42.3063 29.2189C42.2183 29.1515 42.175 29.026 42.175 28.8438V23.6216C42.175 23.4461 42.2142 23.3274 42.2941 23.264C42.374 23.2005 42.4931 23.1682 42.6528 23.1682C42.8125 23.1682 42.933 23.2005 43.0169 23.264C43.1008 23.3274 43.1428 23.4475 43.1428 23.6216V24.1816C43.2538 23.9751 43.4054 23.7889 43.5976 23.6216C43.7573 23.4785 43.9658 23.3476 44.2257 23.2289C44.4842 23.1088 44.8104 23.0494 45.2002 23.0494C45.8297 23.0494 46.34 23.2248 46.7312 23.573C47.121 23.9225 47.3173 24.4595 47.3173 25.1828V28.9018C47.3173 29.1812 47.1535 29.3188 46.8273 29.3188C46.4767 29.3188 46.3007 29.1798 46.3007 28.9018V25.4325C46.3007 24.9629 46.2033 24.6066 46.007 24.3597C45.8121 24.1127 45.4588 23.99 44.9485 23.99C44.6372 23.99 44.3705 24.0601 44.1472 24.1978C43.9238 24.3368 43.7424 24.5176 43.603 24.7402C43.4636 24.9629 43.3594 25.2112 43.2917 25.4851C43.224 25.759 43.1902 26.0316 43.1902 26.3015V28.8438H43.1915Z" fill="#E40000"/>
<path fillRule="evenodd" clipRule="evenodd" d="M53.6195 26.5309C53.9458 26.5309 54.1095 26.3865 54.1095 26.1004C54.1095 25.6713 54.05 25.2705 53.9282 24.8968C53.809 24.523 53.6344 24.1991 53.403 23.9252C53.1715 23.6512 52.8845 23.4353 52.5421 23.2815C52.1996 23.1263 51.8044 23.0494 51.3577 23.0494C50.9191 23.0494 50.5225 23.1263 50.1679 23.2815C49.8133 23.4367 49.5101 23.6553 49.2596 23.9373C49.0079 24.2207 48.8143 24.5567 48.679 24.9453C48.5436 25.334 48.4759 25.7671 48.4759 26.2448C48.4759 26.7144 48.5436 27.1462 48.679 27.5389C48.8143 27.9329 49.0092 28.2703 49.2651 28.5523C49.5209 28.8344 49.8295 29.053 50.1923 29.2081C50.555 29.362 50.9597 29.4402 51.4064 29.4402C51.7502 29.4402 52.048 29.3998 52.3039 29.3202C52.5583 29.2405 52.7763 29.142 52.9549 29.0219C53.135 28.9032 53.2825 28.7777 53.3976 28.6468C53.514 28.5159 53.6074 28.3958 53.6791 28.2838C53.7671 28.1408 53.8104 28.018 53.8104 27.9141C53.8104 27.7953 53.7576 27.6995 53.6493 27.628C53.541 27.5578 53.4327 27.5214 53.3204 27.5214C53.2175 27.5214 53.139 27.5403 53.0876 27.5808C53.0361 27.6199 52.982 27.6793 52.9265 27.7589C52.8791 27.8223 52.8169 27.8979 52.7411 27.9856C52.6639 28.0733 52.5665 28.1583 52.4473 28.242C52.3282 28.3256 52.182 28.3971 52.0115 28.4565C51.8396 28.5159 51.6392 28.5456 51.4078 28.5456C50.8176 28.5456 50.3615 28.3702 50.038 28.0207C49.7158 27.6712 49.5534 27.1746 49.5534 26.5309H53.6195ZM50.6322 24.0574C50.8406 23.9657 51.0843 23.9198 51.3645 23.9198C51.6447 23.9198 51.8883 23.967 52.0968 24.0615C52.3052 24.1573 52.4785 24.2828 52.6192 24.438C52.7587 24.5918 52.867 24.7753 52.9428 24.9858C53.0186 25.1977 53.0686 25.4136 53.093 25.6362H49.6008C49.6251 25.4068 49.6793 25.1855 49.7632 24.975C49.8457 24.7645 49.9608 24.5823 50.1043 24.4272C50.2478 24.272 50.4237 24.1492 50.6322 24.0574Z" fill="#E40000"/>
<path d="M55.1856 28.8546C55.0977 28.7831 55.0354 28.7129 55.0002 28.6454C54.965 28.578 54.9461 28.5132 54.9461 28.4484C54.9461 28.3135 54.9934 28.188 55.0895 28.0733C55.1856 27.9586 55.3007 27.9006 55.4361 27.9006C55.5159 27.9006 55.5904 27.9168 55.6567 27.9478C55.7244 27.9788 55.8029 28.0274 55.8895 28.0908C56.0249 28.1866 56.2198 28.2932 56.4756 28.412C56.7301 28.5321 57.0495 28.5915 57.4326 28.5915C57.8549 28.5915 58.1798 28.5078 58.4072 28.3418C58.6346 28.1745 58.7483 27.9491 58.7483 27.6617C58.7483 27.5592 58.7361 27.4593 58.7117 27.3635C58.6887 27.2677 58.6346 27.1773 58.5507 27.0896C58.4667 27.0019 58.3449 26.9249 58.1865 26.8575C58.0268 26.79 57.8116 26.736 57.5409 26.6969L56.8113 26.5768C56.2929 26.4972 55.8679 26.315 55.5376 26.0289C55.2073 25.7428 55.0408 25.3421 55.0408 24.8252C55.0408 24.2612 55.2506 23.824 55.6689 23.515C56.0871 23.2046 56.6556 23.0494 57.373 23.0494C57.6911 23.0494 57.9686 23.071 58.2041 23.1142C58.4383 23.1574 58.6359 23.2113 58.7957 23.2748C58.9554 23.3382 59.0867 23.4043 59.1909 23.4718C59.2938 23.5392 59.375 23.5973 59.4305 23.6445C59.5821 23.7713 59.6579 23.8982 59.6579 24.0264C59.6579 24.1532 59.62 24.2666 59.5442 24.3664C59.4684 24.4663 59.3574 24.5149 59.2139 24.5149C59.1259 24.5149 59.0447 24.4973 58.9689 24.4609C58.8931 24.4245 58.8024 24.3759 58.6996 24.3125C58.5466 24.2248 58.3652 24.133 58.1541 24.0385C57.9429 23.9427 57.6641 23.8955 57.3202 23.8955C56.8871 23.8955 56.5704 23.9751 56.366 24.1343C56.1616 24.2936 56.0601 24.496 56.0601 24.7416C56.0601 24.8455 56.0722 24.944 56.0953 25.0398C56.1196 25.1356 56.1697 25.2247 56.2455 25.3083C56.3213 25.3906 56.4337 25.4649 56.5812 25.5283C56.7287 25.5917 56.9277 25.6403 57.1754 25.6713L57.9185 25.7901C58.5344 25.8778 58.996 26.0667 59.3046 26.3568C59.6132 26.647 59.7662 27.0545 59.7662 27.5794C59.7662 28.1583 59.5631 28.6144 59.1571 28.9437C58.7496 29.2729 58.1689 29.4389 57.4109 29.4389C57.1077 29.4389 56.8343 29.4187 56.592 29.3795C56.3484 29.339 56.1332 29.2905 55.9464 29.2297C55.7582 29.1704 55.6039 29.1069 55.4794 29.0395C55.3548 28.972 55.2574 28.9099 55.1856 28.8546Z" fill="#E40000"/>
<path d="M60.9722 28.8546C60.8842 28.7831 60.8233 28.7129 60.7868 28.6454C60.7502 28.578 60.7326 28.5132 60.7326 28.4484C60.7326 28.3135 60.78 28.188 60.8761 28.0733C60.9722 27.9586 61.0873 27.9006 61.2226 27.9006C61.3025 27.9006 61.3769 27.9168 61.4433 27.9478C61.5109 27.9788 61.5895 28.0274 61.6761 28.0908C61.8114 28.1866 62.0064 28.2932 62.2622 28.412C62.5167 28.5321 62.8361 28.5915 63.2192 28.5915C63.6415 28.5915 63.9663 28.5078 64.1938 28.3418C64.4212 28.1745 64.5349 27.9491 64.5349 27.6617C64.5349 27.5592 64.5227 27.4593 64.4983 27.3635C64.4739 27.2677 64.4212 27.1773 64.3372 27.0896C64.2533 27.0019 64.1315 26.9249 63.9731 26.8575C63.8134 26.79 63.5982 26.736 63.3275 26.6969L62.5979 26.5768C62.0795 26.4972 61.6558 26.315 61.3242 26.0289C60.9939 25.7428 60.8274 25.3421 60.8274 24.8252C60.8274 24.2612 61.0358 23.824 61.4554 23.515C61.8737 23.2046 62.4422 23.0494 63.1596 23.0494C63.4777 23.0494 63.7552 23.071 63.9907 23.1142C64.2262 23.1574 64.4225 23.2113 64.5822 23.2748C64.742 23.3382 64.8733 23.4043 64.9775 23.4718C65.0803 23.5392 65.1616 23.5973 65.2171 23.6445C65.3687 23.7713 65.4445 23.8982 65.4445 24.0264C65.4445 24.1532 65.4066 24.2666 65.3308 24.3664C65.255 24.4663 65.144 24.5149 65.0005 24.5149C64.9125 24.5149 64.8299 24.4973 64.7555 24.4609C64.6797 24.4245 64.589 24.3759 64.4848 24.3125C64.3332 24.2248 64.1504 24.133 63.9393 24.0385C63.7281 23.9427 63.4493 23.8955 63.1055 23.8955C62.6723 23.8955 62.3556 23.9751 62.1512 24.1343C61.9468 24.2936 61.8453 24.496 61.8453 24.7416C61.8453 24.8455 61.8575 24.944 61.8805 25.0398C61.9048 25.1356 61.9549 25.2247 62.0307 25.3083C62.1065 25.3906 62.2189 25.4649 62.3664 25.5283C62.514 25.5917 62.7116 25.6403 62.9593 25.6713L63.7038 25.7901C64.3196 25.8778 64.7812 26.0667 65.0898 26.3568C65.3971 26.647 65.5514 27.0545 65.5514 27.5794C65.5514 28.1583 65.3484 28.6144 64.9423 28.9437C64.5362 29.2729 63.9542 29.4389 63.1962 29.4389C62.893 29.4389 62.6195 29.4187 62.3772 29.3795C62.1336 29.339 61.9184 29.2905 61.7316 29.2297C61.5448 29.1704 61.3891 29.1069 61.2659 29.0395C61.1414 28.972 61.044 28.9099 60.9722 28.8546Z" fill="#E40000"/>
<path d="M6.51074 17.8663C7.5327 17.4993 8.34214 16.9892 9.12316 16.4953L9.33567 16.3644C10.1627 15.8449 10.9694 15.2376 11.7992 14.513C13.6387 12.9099 14.7405 11.3392 15.3727 9.41894C15.6285 8.63898 15.9912 7.12223 15.5473 5.6986C15.2211 4.66224 14.5916 3.80671 13.6739 3.16304C13.5683 3.07533 12.4259 2.16177 10.2683 2.16177C8.29612 2.16177 6.13309 2.9215 3.83876 4.4207L3.76567 4.46658L3.75484 4.47467C3.68851 4.51381 3.62219 4.55564 3.5491 4.60422C3.49631 4.64335 3.43946 4.68249 3.37178 4.72027C2.90344 5.03738 2.4554 5.38148 2.03985 5.74852C1.07204 6.68232 -0.0324897 8.2436 0.0351895 9.57007C0.0636148 10.1301 0.299139 10.5916 0.733639 10.9316C1.12618 11.2366 1.61618 11.3931 2.1901 11.3931C3.36365 11.3931 4.65227 10.7562 5.5321 10.2178C5.58759 10.1787 5.64309 10.1409 5.69994 10.1058C5.8529 10.0032 6.00585 9.90338 6.16016 9.79948L6.31176 9.69827C7.56247 8.86298 8.85785 7.99665 10.3157 7.49197C10.6947 7.36243 11.0263 7.30035 11.3295 7.30035C11.4797 7.30035 11.6273 7.31385 11.7681 7.34623C12.212 7.44879 12.5369 7.69978 12.7305 8.09516C13.0689 8.78471 12.9863 9.86695 12.5274 10.8601C11.9007 12.2109 10.8206 13.5455 9.32349 14.822C8.56007 15.4711 7.8562 15.9731 7.22814 16.3131L7.17129 16.3428C6.87756 16.5034 6.54864 16.6856 6.19941 16.8151L6.15204 16.8326C6.04917 16.8718 5.96118 16.9055 5.87997 16.9325C4.41539 17.3238 5.30605 16.0365 5.30605 16.0365C5.62956 15.6546 5.95848 15.3469 6.30635 15.0271C6.50397 14.8409 6.70836 14.6506 6.91546 14.4442L6.96148 14.3983C7.21731 14.1432 7.56789 13.7938 7.54623 13.2945C7.51645 12.6279 6.83966 12.2122 6.20348 12.1947C6.18723 12.1947 6.1737 12.1947 6.15745 12.1947C5.54563 12.1947 4.9663 12.5536 4.5873 12.8532C4.20829 13.1568 3.80492 13.6102 3.53556 14.0366C3.14573 14.6533 2.32546 16.2268 3.12407 17.4817C3.44352 17.9837 3.97818 18.2387 4.71047 18.2387C5.22348 18.236 5.82853 18.1132 6.51074 17.8663Z" fill="#E40000"/>
<path d="M34.978 0.0350952C33.8153 0.0350952 32.8691 0.967543 32.8691 2.11185C32.8691 3.27774 33.7841 4.1913 34.9496 4.1913C36.1163 4.1913 37.03 3.28044 37.03 2.12534C37.0449 1.57748 36.8446 1.0566 36.4602 0.659875C36.073 0.257749 35.5478 0.0350952 34.978 0.0350952Z" fill="#E40000"/>
<path d="M33.3077 18.2239H36.5806V5.23035L33.3077 5.76337V18.2239Z" fill="#E40000"/>
<path fillRule="evenodd" clipRule="evenodd" d="M21.7656 6.15606C23.2099 5.43952 24.6149 4.99826 26.1783 4.99826C28.4375 4.99826 30.8563 6.10883 30.8563 9.48642V16.4224C29.5528 17.7219 27.6226 18.46 25.3418 18.46C22.5155 18.46 20.4838 16.3671 20.4838 13.9355C20.5379 11.3797 22.4776 9.73202 25.5949 9.73202H27.5373V9.0681C27.5373 7.93594 27.05 7.39348 25.8643 7.3449C24.8857 7.30576 23.7947 7.61073 22.7741 8.06684L22.2773 8.30163L21.3975 6.34498L21.7656 6.15606ZM25.8305 16.1917C26.5492 16.1917 27.2084 15.9987 27.5306 15.772V11.9397H26.2176C24.5743 11.9397 23.9679 13.0408 23.9449 14.011C23.9219 15.185 24.5148 16.1917 25.8305 16.1917Z" fill="#E40000"/>
<path fillRule="evenodd" clipRule="evenodd" d="M58.7632 15.4495C59.1598 15.8746 59.7675 16.1687 60.6636 16.1687C62.6087 16.1687 64.0232 15.189 64.187 15.0636L65.1115 16.9568C65.1115 16.9568 64.0665 17.7125 62.6507 18.1483C61.913 18.3791 61.1062 18.4911 60.3293 18.4911C58.9107 18.4911 57.6871 18.0862 56.8032 17.3535C55.3494 16.1525 54.5562 14.038 54.5806 11.9424C54.6104 8.62818 56.1088 5.09946 59.9557 5.09946C63.4046 5.09946 64.9788 7.1951 65.0397 11.8007V12.1259H57.9849C57.9131 13.5117 58.1744 14.8126 58.7632 15.4495ZM61.626 10.0815C61.626 9.10318 61.4108 7.52976 59.957 7.52976C58.6644 7.52976 58.1392 8.82385 58.0823 10.0815H61.626Z" fill="#E40000"/>
<path d="M39.1998 7.55809L39.1958 18.2333H42.5337V8.18422C42.9695 7.76185 43.894 7.38941 44.7712 7.35568C45.5847 7.32329 46.1112 7.49197 46.1112 7.49197L47.0344 5.42736C46.6757 5.24924 45.8216 5.03198 44.8307 5.03198C43.3932 5.03333 41.1869 5.45165 39.1998 7.55809Z" fill="#E40000"/>
<path d="M71.9782 16.1782C70.6165 16.0743 70.3323 15.4778 70.3323 14.486V1.6301L67.0498 2.18741V14.2728C67.0498 17.1376 68.6105 18.3642 71.2216 18.3642C71.7806 18.3642 72.4736 18.2333 72.4736 18.2333V16.1836C72.475 16.1836 72.1677 16.193 71.9782 16.1782Z" fill="#E40000"/>
<path d="M51.2711 1.64899L47.9155 2.18605V14.3308C47.9155 17.0512 49.5101 18.3386 52.182 18.3386C52.825 18.3386 53.4287 18.2171 53.4287 18.2171V16.1957C53.3908 16.193 53.1444 16.193 52.9563 16.1863C51.5472 16.1363 51.2697 15.3631 51.2697 14.4685V7.635H53.4287V5.23709H51.2697V1.64899H51.2711Z" fill="#E40000"/>
</svg>
